<mxfile host="app.diagrams.net" modified="2021-02-12T14:41:09.788Z" agent="5.0 (Windows NT 10.0; Win64; x64) AppleWebKit/537.36 (KHTML, like Gecko) Chrome/88.0.4324.152 Safari/537.36" etag="CmaaFwyG38Uy6giScfD3" version="14.3.1" type="github">
  <diagram id="C5RBs43oDa-KdzZeNtuy" name="Page-1">
    <mxGraphModel dx="1422" dy="798" grid="1" gridSize="10" guides="1" tooltips="1" connect="1" arrows="1" fold="1" page="1" pageScale="1" pageWidth="827" pageHeight="1169" background="#F4F1DE" math="0" shadow="0">
      <root>
        <mxCell id="WIyWlLk6GJQsqaUBKTNV-0" />
        <mxCell id="WIyWlLk6GJQsqaUBKTNV-1" parent="WIyWlLk6GJQsqaUBKTNV-0" />
        <mxCell id="WIyWlLk6GJQsqaUBKTNV-3" value="New price is streamed" style="whiteSpace=wrap;html=1;fontSize=12;glass=0;strokeWidth=1;shadow=0;fillColor=#F2CC8F;strokeColor=#E07A5F;fontColor=#393C56;" parent="WIyWlLk6GJQsqaUBKTNV-1" vertex="1">
          <mxGeometry x="60" y="80" width="120" height="40" as="geometry" />
        </mxCell>
        <mxCell id="WIyWlLk6GJQsqaUBKTNV-6" value="Position?" style="rhombus;whiteSpace=wrap;html=1;shadow=0;fontFamily=Helvetica;fontSize=12;align=center;strokeWidth=1;spacing=6;spacingTop=-4;fillColor=#e1d5e7;strokeColor=#9673a6;" parent="WIyWlLk6GJQsqaUBKTNV-1" vertex="1">
          <mxGeometry x="70" y="170" width="100" height="80" as="geometry" />
        </mxCell>
        <mxCell id="WIyWlLk6GJQsqaUBKTNV-10" value="Short or Long?" style="rhombus;whiteSpace=wrap;html=1;shadow=0;fontFamily=Helvetica;fontSize=12;align=center;strokeWidth=1;spacing=6;spacingTop=-4;fillColor=#e1d5e7;strokeColor=#9673a6;" parent="WIyWlLk6GJQsqaUBKTNV-1" vertex="1">
          <mxGeometry x="70" y="475" width="100" height="80" as="geometry" />
        </mxCell>
        <mxCell id="DTCYm0wzeM4vk4XQdGB6-1" value="Long condition met?" style="rhombus;whiteSpace=wrap;html=1;shadow=0;fontFamily=Helvetica;fontSize=12;align=center;strokeWidth=1;spacing=6;spacingTop=-4;fillColor=#F2CC8F;strokeColor=#E07A5F;fontColor=#393C56;" vertex="1" parent="WIyWlLk6GJQsqaUBKTNV-1">
          <mxGeometry x="220" y="170" width="160" height="80" as="geometry" />
        </mxCell>
        <mxCell id="DTCYm0wzeM4vk4XQdGB6-5" value="Short condition met?" style="rhombus;whiteSpace=wrap;html=1;shadow=0;fontFamily=Helvetica;fontSize=12;align=center;strokeWidth=1;spacing=6;spacingTop=-4;fillColor=#F2CC8F;strokeColor=#E07A5F;fontColor=#393C56;" vertex="1" parent="WIyWlLk6GJQsqaUBKTNV-1">
          <mxGeometry x="220" y="290" width="160" height="80" as="geometry" />
        </mxCell>
        <mxCell id="DTCYm0wzeM4vk4XQdGB6-10" value="Pass" style="whiteSpace=wrap;html=1;fontSize=12;glass=0;strokeWidth=1;shadow=0;fillColor=#fff2cc;strokeColor=#d6b656;" vertex="1" parent="WIyWlLk6GJQsqaUBKTNV-1">
          <mxGeometry x="240" y="410" width="120" height="40" as="geometry" />
        </mxCell>
        <mxCell id="DTCYm0wzeM4vk4XQdGB6-11" value="" style="endArrow=classic;html=1;fontSize=10;entryX=1;entryY=0.5;entryDx=0;entryDy=0;labelBackgroundColor=#F4F1DE;strokeColor=#E07A5F;fontColor=#393C56;" edge="1" parent="WIyWlLk6GJQsqaUBKTNV-1" target="WIyWlLk6GJQsqaUBKTNV-3">
          <mxGeometry width="50" height="50" relative="1" as="geometry">
            <mxPoint x="360" y="430" as="sourcePoint" />
            <mxPoint x="350" y="80" as="targetPoint" />
            <Array as="points">
              <mxPoint x="700" y="430" />
              <mxPoint x="700" y="100" />
            </Array>
          </mxGeometry>
        </mxCell>
        <mxCell id="DTCYm0wzeM4vk4XQdGB6-19" value="" style="endArrow=classic;html=1;fontSize=10;entryX=0.5;entryY=0;entryDx=0;entryDy=0;exitX=0.5;exitY=1;exitDx=0;exitDy=0;labelBackgroundColor=#F4F1DE;strokeColor=#E07A5F;fontColor=#393C56;" edge="1" parent="WIyWlLk6GJQsqaUBKTNV-1" source="WIyWlLk6GJQsqaUBKTNV-3" target="WIyWlLk6GJQsqaUBKTNV-6">
          <mxGeometry relative="1" as="geometry">
            <mxPoint x="80" y="140" as="sourcePoint" />
            <mxPoint x="180" y="140" as="targetPoint" />
          </mxGeometry>
        </mxCell>
        <mxCell id="DTCYm0wzeM4vk4XQdGB6-20" value="Check position" style="edgeLabel;resizable=0;html=1;align=center;verticalAlign=middle;labelBackgroundColor=#F4F1DE;fontColor=#393C56;" connectable="0" vertex="1" parent="DTCYm0wzeM4vk4XQdGB6-19">
          <mxGeometry relative="1" as="geometry" />
        </mxCell>
        <mxCell id="DTCYm0wzeM4vk4XQdGB6-24" value="" style="endArrow=classic;html=1;fontSize=10;entryX=0.5;entryY=0;entryDx=0;entryDy=0;exitX=0.5;exitY=1;exitDx=0;exitDy=0;labelBackgroundColor=#F4F1DE;strokeColor=#E07A5F;fontColor=#393C56;" edge="1" parent="WIyWlLk6GJQsqaUBKTNV-1" target="WIyWlLk6GJQsqaUBKTNV-10">
          <mxGeometry relative="1" as="geometry">
            <mxPoint x="119.5" y="250" as="sourcePoint" />
            <mxPoint x="119.5" y="300" as="targetPoint" />
          </mxGeometry>
        </mxCell>
        <mxCell id="DTCYm0wzeM4vk4XQdGB6-25" value="Yes" style="edgeLabel;resizable=0;html=1;align=center;verticalAlign=middle;labelBackgroundColor=#F4F1DE;fontColor=#393C56;" connectable="0" vertex="1" parent="DTCYm0wzeM4vk4XQdGB6-24">
          <mxGeometry relative="1" as="geometry" />
        </mxCell>
        <mxCell id="DTCYm0wzeM4vk4XQdGB6-26" value="" style="endArrow=classic;html=1;fontSize=10;entryX=0;entryY=0.5;entryDx=0;entryDy=0;exitX=0.5;exitY=1;exitDx=0;exitDy=0;labelBackgroundColor=#F4F1DE;strokeColor=#E07A5F;fontColor=#393C56;" edge="1" parent="WIyWlLk6GJQsqaUBKTNV-1" target="DTCYm0wzeM4vk4XQdGB6-1">
          <mxGeometry relative="1" as="geometry">
            <mxPoint x="169" y="210" as="sourcePoint" />
            <mxPoint x="169" y="260" as="targetPoint" />
          </mxGeometry>
        </mxCell>
        <mxCell id="DTCYm0wzeM4vk4XQdGB6-27" value="No" style="edgeLabel;resizable=0;html=1;align=center;verticalAlign=middle;labelBackgroundColor=#F4F1DE;fontColor=#393C56;" connectable="0" vertex="1" parent="DTCYm0wzeM4vk4XQdGB6-26">
          <mxGeometry relative="1" as="geometry" />
        </mxCell>
        <mxCell id="DTCYm0wzeM4vk4XQdGB6-30" value="" style="endArrow=classic;html=1;fontSize=10;exitX=0.5;exitY=1;exitDx=0;exitDy=0;labelBackgroundColor=#F4F1DE;strokeColor=#E07A5F;fontColor=#393C56;" edge="1" parent="WIyWlLk6GJQsqaUBKTNV-1">
          <mxGeometry relative="1" as="geometry">
            <mxPoint x="299.5" y="250" as="sourcePoint" />
            <mxPoint x="300" y="290" as="targetPoint" />
          </mxGeometry>
        </mxCell>
        <mxCell id="DTCYm0wzeM4vk4XQdGB6-31" value="No" style="edgeLabel;resizable=0;html=1;align=center;verticalAlign=middle;labelBackgroundColor=#F4F1DE;fontColor=#393C56;" connectable="0" vertex="1" parent="DTCYm0wzeM4vk4XQdGB6-30">
          <mxGeometry relative="1" as="geometry" />
        </mxCell>
        <mxCell id="DTCYm0wzeM4vk4XQdGB6-33" value="" style="endArrow=classic;html=1;fontSize=10;exitX=0.5;exitY=1;exitDx=0;exitDy=0;labelBackgroundColor=#F4F1DE;strokeColor=#E07A5F;fontColor=#393C56;" edge="1" parent="WIyWlLk6GJQsqaUBKTNV-1">
          <mxGeometry relative="1" as="geometry">
            <mxPoint x="299.5" y="370" as="sourcePoint" />
            <mxPoint x="300" y="410" as="targetPoint" />
          </mxGeometry>
        </mxCell>
        <mxCell id="DTCYm0wzeM4vk4XQdGB6-34" value="No" style="edgeLabel;resizable=0;html=1;align=center;verticalAlign=middle;labelBackgroundColor=#F4F1DE;fontColor=#393C56;" connectable="0" vertex="1" parent="DTCYm0wzeM4vk4XQdGB6-33">
          <mxGeometry relative="1" as="geometry" />
        </mxCell>
        <mxCell id="DTCYm0wzeM4vk4XQdGB6-35" value="" style="endArrow=classic;html=1;fontSize=10;exitX=0.5;exitY=1;exitDx=0;exitDy=0;labelBackgroundColor=#F4F1DE;strokeColor=#E07A5F;fontColor=#393C56;" edge="1" parent="WIyWlLk6GJQsqaUBKTNV-1">
          <mxGeometry relative="1" as="geometry">
            <mxPoint x="380" y="209.5" as="sourcePoint" />
            <mxPoint x="450" y="210" as="targetPoint" />
          </mxGeometry>
        </mxCell>
        <mxCell id="DTCYm0wzeM4vk4XQdGB6-36" value="Yes" style="edgeLabel;resizable=0;html=1;align=center;verticalAlign=middle;labelBackgroundColor=#F4F1DE;fontColor=#393C56;" connectable="0" vertex="1" parent="DTCYm0wzeM4vk4XQdGB6-35">
          <mxGeometry relative="1" as="geometry" />
        </mxCell>
        <mxCell id="DTCYm0wzeM4vk4XQdGB6-37" value="" style="endArrow=classic;html=1;fontSize=10;exitX=0.5;exitY=1;exitDx=0;exitDy=0;labelBackgroundColor=#F4F1DE;strokeColor=#E07A5F;fontColor=#393C56;" edge="1" parent="WIyWlLk6GJQsqaUBKTNV-1">
          <mxGeometry relative="1" as="geometry">
            <mxPoint x="380" y="329.5" as="sourcePoint" />
            <mxPoint x="450" y="330" as="targetPoint" />
          </mxGeometry>
        </mxCell>
        <mxCell id="DTCYm0wzeM4vk4XQdGB6-38" value="Yes" style="edgeLabel;resizable=0;html=1;align=center;verticalAlign=middle;labelBackgroundColor=#F4F1DE;fontColor=#393C56;" connectable="0" vertex="1" parent="DTCYm0wzeM4vk4XQdGB6-37">
          <mxGeometry relative="1" as="geometry" />
        </mxCell>
        <mxCell id="DTCYm0wzeM4vk4XQdGB6-39" value="Open long" style="whiteSpace=wrap;html=1;fontSize=12;glass=0;strokeWidth=1;shadow=0;fillColor=#F2CC8F;strokeColor=#E07A5F;fontColor=#393C56;" vertex="1" parent="WIyWlLk6GJQsqaUBKTNV-1">
          <mxGeometry x="450" y="190" width="120" height="40" as="geometry" />
        </mxCell>
        <mxCell id="DTCYm0wzeM4vk4XQdGB6-40" value="Open short" style="whiteSpace=wrap;html=1;fontSize=12;glass=0;strokeWidth=1;shadow=0;fillColor=#F2CC8F;strokeColor=#E07A5F;fontColor=#393C56;" vertex="1" parent="WIyWlLk6GJQsqaUBKTNV-1">
          <mxGeometry x="450" y="310" width="120" height="40" as="geometry" />
        </mxCell>
        <mxCell id="DTCYm0wzeM4vk4XQdGB6-44" value="" style="endArrow=none;html=1;fontSize=10;labelBackgroundColor=#F4F1DE;strokeColor=#E07A5F;fontColor=#393C56;" edge="1" parent="WIyWlLk6GJQsqaUBKTNV-1">
          <mxGeometry width="50" height="50" relative="1" as="geometry">
            <mxPoint x="570" y="330" as="sourcePoint" />
            <mxPoint x="700" y="310" as="targetPoint" />
            <Array as="points">
              <mxPoint x="700" y="330" />
            </Array>
          </mxGeometry>
        </mxCell>
        <mxCell id="DTCYm0wzeM4vk4XQdGB6-45" value="" style="endArrow=none;html=1;fontSize=10;labelBackgroundColor=#F4F1DE;strokeColor=#E07A5F;fontColor=#393C56;" edge="1" parent="WIyWlLk6GJQsqaUBKTNV-1">
          <mxGeometry width="50" height="50" relative="1" as="geometry">
            <mxPoint x="570" y="209.5" as="sourcePoint" />
            <mxPoint x="700" y="190" as="targetPoint" />
            <Array as="points">
              <mxPoint x="700" y="210" />
            </Array>
          </mxGeometry>
        </mxCell>
        <mxCell id="DTCYm0wzeM4vk4XQdGB6-46" value="" style="endArrow=classic;html=1;fontSize=10;labelBackgroundColor=#F4F1DE;strokeColor=#E07A5F;fontColor=#393C56;" edge="1" parent="WIyWlLk6GJQsqaUBKTNV-1">
          <mxGeometry relative="1" as="geometry">
            <mxPoint x="170" y="514.5" as="sourcePoint" />
            <mxPoint x="220" y="515" as="targetPoint" />
          </mxGeometry>
        </mxCell>
        <mxCell id="DTCYm0wzeM4vk4XQdGB6-47" value="Long" style="edgeLabel;resizable=0;html=1;align=center;verticalAlign=middle;labelBackgroundColor=#F4F1DE;fontColor=#393C56;" connectable="0" vertex="1" parent="DTCYm0wzeM4vk4XQdGB6-46">
          <mxGeometry relative="1" as="geometry" />
        </mxCell>
        <mxCell id="DTCYm0wzeM4vk4XQdGB6-48" value="Long condition met?" style="rhombus;whiteSpace=wrap;html=1;shadow=0;fontFamily=Helvetica;fontSize=12;align=center;strokeWidth=1;spacing=6;spacingTop=-4;fillColor=#F2CC8F;strokeColor=#E07A5F;fontColor=#393C56;" vertex="1" parent="WIyWlLk6GJQsqaUBKTNV-1">
          <mxGeometry x="220" y="475" width="160" height="80" as="geometry" />
        </mxCell>
        <mxCell id="DTCYm0wzeM4vk4XQdGB6-51" value="" style="endArrow=classic;html=1;fontSize=10;labelBackgroundColor=#F4F1DE;strokeColor=#E07A5F;fontColor=#393C56;" edge="1" parent="WIyWlLk6GJQsqaUBKTNV-1">
          <mxGeometry relative="1" as="geometry">
            <mxPoint x="300" y="555" as="sourcePoint" />
            <mxPoint x="300" y="600" as="targetPoint" />
          </mxGeometry>
        </mxCell>
        <mxCell id="DTCYm0wzeM4vk4XQdGB6-52" value="No" style="edgeLabel;resizable=0;html=1;align=center;verticalAlign=middle;labelBackgroundColor=#F4F1DE;fontColor=#393C56;" connectable="0" vertex="1" parent="DTCYm0wzeM4vk4XQdGB6-51">
          <mxGeometry relative="1" as="geometry" />
        </mxCell>
        <mxCell id="DTCYm0wzeM4vk4XQdGB6-54" value="" style="endArrow=none;html=1;fontSize=10;exitX=1;exitY=0.5;exitDx=0;exitDy=0;labelBackgroundColor=#F4F1DE;strokeColor=#E07A5F;fontColor=#393C56;" edge="1" parent="WIyWlLk6GJQsqaUBKTNV-1" source="DTCYm0wzeM4vk4XQdGB6-48">
          <mxGeometry width="50" height="50" relative="1" as="geometry">
            <mxPoint x="380" y="520" as="sourcePoint" />
            <mxPoint x="700" y="420" as="targetPoint" />
            <Array as="points">
              <mxPoint x="700" y="515" />
            </Array>
          </mxGeometry>
        </mxCell>
        <mxCell id="DTCYm0wzeM4vk4XQdGB6-55" value="Yes" style="edgeLabel;html=1;align=center;verticalAlign=middle;resizable=0;points=[];fontSize=10;labelBackgroundColor=#F4F1DE;fontColor=#393C56;" vertex="1" connectable="0" parent="DTCYm0wzeM4vk4XQdGB6-54">
          <mxGeometry x="-0.8664" y="-4" relative="1" as="geometry">
            <mxPoint x="-8" y="-4.000000000000001" as="offset" />
          </mxGeometry>
        </mxCell>
        <mxCell id="DTCYm0wzeM4vk4XQdGB6-56" value="Short condition met?" style="rhombus;whiteSpace=wrap;html=1;shadow=0;fontFamily=Helvetica;fontSize=12;align=center;strokeWidth=1;spacing=6;spacingTop=-4;fillColor=#F2CC8F;strokeColor=#E07A5F;fontColor=#393C56;" vertex="1" parent="WIyWlLk6GJQsqaUBKTNV-1">
          <mxGeometry x="220" y="600" width="160" height="80" as="geometry" />
        </mxCell>
        <mxCell id="DTCYm0wzeM4vk4XQdGB6-61" value="" style="endArrow=classic;html=1;fontSize=10;exitX=0.5;exitY=1;exitDx=0;exitDy=0;labelBackgroundColor=#F4F1DE;strokeColor=#E07A5F;fontColor=#393C56;" edge="1" parent="WIyWlLk6GJQsqaUBKTNV-1" source="DTCYm0wzeM4vk4XQdGB6-56">
          <mxGeometry width="50" height="50" relative="1" as="geometry">
            <mxPoint x="330" y="750" as="sourcePoint" />
            <mxPoint x="700" y="470" as="targetPoint" />
            <Array as="points">
              <mxPoint x="300" y="720" />
              <mxPoint x="700" y="720" />
            </Array>
          </mxGeometry>
        </mxCell>
        <mxCell id="DTCYm0wzeM4vk4XQdGB6-66" value="No" style="edgeLabel;html=1;align=center;verticalAlign=middle;resizable=0;points=[];fontSize=10;labelBackgroundColor=#F4F1DE;fontColor=#393C56;" vertex="1" connectable="0" parent="DTCYm0wzeM4vk4XQdGB6-61">
          <mxGeometry x="-0.8174" y="-4" relative="1" as="geometry">
            <mxPoint x="-23" y="-24" as="offset" />
          </mxGeometry>
        </mxCell>
        <mxCell id="DTCYm0wzeM4vk4XQdGB6-62" value="" style="endArrow=classic;html=1;fontSize=10;exitX=0.5;exitY=1;exitDx=0;exitDy=0;labelBackgroundColor=#F4F1DE;strokeColor=#E07A5F;fontColor=#393C56;" edge="1" parent="WIyWlLk6GJQsqaUBKTNV-1">
          <mxGeometry relative="1" as="geometry">
            <mxPoint x="380" y="639.5" as="sourcePoint" />
            <mxPoint x="450" y="640" as="targetPoint" />
          </mxGeometry>
        </mxCell>
        <mxCell id="DTCYm0wzeM4vk4XQdGB6-63" value="Yes" style="edgeLabel;resizable=0;html=1;align=center;verticalAlign=middle;labelBackgroundColor=#F4F1DE;fontColor=#393C56;" connectable="0" vertex="1" parent="DTCYm0wzeM4vk4XQdGB6-62">
          <mxGeometry relative="1" as="geometry" />
        </mxCell>
        <mxCell id="DTCYm0wzeM4vk4XQdGB6-64" value="Close long and go short" style="whiteSpace=wrap;html=1;fontSize=12;glass=0;strokeWidth=1;shadow=0;fillColor=#F2CC8F;strokeColor=#E07A5F;fontColor=#393C56;" vertex="1" parent="WIyWlLk6GJQsqaUBKTNV-1">
          <mxGeometry x="450" y="620" width="120" height="40" as="geometry" />
        </mxCell>
        <mxCell id="DTCYm0wzeM4vk4XQdGB6-65" value="" style="endArrow=none;html=1;fontSize=10;labelBackgroundColor=#F4F1DE;strokeColor=#E07A5F;fontColor=#393C56;" edge="1" parent="WIyWlLk6GJQsqaUBKTNV-1">
          <mxGeometry width="50" height="50" relative="1" as="geometry">
            <mxPoint x="570" y="640" as="sourcePoint" />
            <mxPoint x="700" y="620" as="targetPoint" />
            <Array as="points">
              <mxPoint x="700" y="640" />
            </Array>
          </mxGeometry>
        </mxCell>
        <mxCell id="DTCYm0wzeM4vk4XQdGB6-67" value="" style="endArrow=classic;html=1;fontSize=10;entryX=0.5;entryY=0;entryDx=0;entryDy=0;exitX=0.5;exitY=1;exitDx=0;exitDy=0;labelBackgroundColor=#F4F1DE;strokeColor=#E07A5F;fontColor=#393C56;" edge="1" parent="WIyWlLk6GJQsqaUBKTNV-1">
          <mxGeometry relative="1" as="geometry">
            <mxPoint x="119.5" y="555" as="sourcePoint" />
            <mxPoint x="120" y="780" as="targetPoint" />
          </mxGeometry>
        </mxCell>
        <mxCell id="DTCYm0wzeM4vk4XQdGB6-68" value="Short" style="edgeLabel;resizable=0;html=1;align=center;verticalAlign=middle;labelBackgroundColor=#F4F1DE;fontColor=#393C56;" connectable="0" vertex="1" parent="DTCYm0wzeM4vk4XQdGB6-67">
          <mxGeometry relative="1" as="geometry" />
        </mxCell>
        <mxCell id="DTCYm0wzeM4vk4XQdGB6-69" value="&lt;font style=&quot;font-size: 12px&quot;&gt;Pass&lt;/font&gt;" style="whiteSpace=wrap;html=1;fontSize=10;fillColor=#fff2cc;strokeColor=#d6b656;" vertex="1" parent="WIyWlLk6GJQsqaUBKTNV-1">
          <mxGeometry x="450" y="700" width="120" height="40" as="geometry" />
        </mxCell>
        <mxCell id="DTCYm0wzeM4vk4XQdGB6-74" value="Short condition met?" style="rhombus;whiteSpace=wrap;html=1;shadow=0;fontFamily=Helvetica;fontSize=12;align=center;strokeWidth=1;spacing=6;spacingTop=-4;fillColor=#F2CC8F;strokeColor=#E07A5F;fontColor=#393C56;" vertex="1" parent="WIyWlLk6GJQsqaUBKTNV-1">
          <mxGeometry x="40" y="780" width="160" height="80" as="geometry" />
        </mxCell>
        <mxCell id="DTCYm0wzeM4vk4XQdGB6-75" value="" style="endArrow=classic;html=1;fontSize=10;exitX=0.5;exitY=1;exitDx=0;exitDy=0;labelBackgroundColor=#F4F1DE;strokeColor=#E07A5F;fontColor=#393C56;" edge="1" parent="WIyWlLk6GJQsqaUBKTNV-1">
          <mxGeometry relative="1" as="geometry">
            <mxPoint x="200" y="819.5" as="sourcePoint" />
            <mxPoint x="700" y="680" as="targetPoint" />
            <Array as="points">
              <mxPoint x="700" y="820" />
            </Array>
          </mxGeometry>
        </mxCell>
        <mxCell id="DTCYm0wzeM4vk4XQdGB6-76" value="Yes" style="edgeLabel;resizable=0;html=1;align=center;verticalAlign=middle;labelBackgroundColor=#F4F1DE;fontColor=#393C56;" connectable="0" vertex="1" parent="DTCYm0wzeM4vk4XQdGB6-75">
          <mxGeometry relative="1" as="geometry">
            <mxPoint x="-280" y="0.18" as="offset" />
          </mxGeometry>
        </mxCell>
        <mxCell id="DTCYm0wzeM4vk4XQdGB6-77" value="" style="endArrow=classic;html=1;fontSize=10;labelBackgroundColor=#F4F1DE;strokeColor=#E07A5F;fontColor=#393C56;entryX=0;entryY=0.5;entryDx=0;entryDy=0;" edge="1" parent="WIyWlLk6GJQsqaUBKTNV-1" target="DTCYm0wzeM4vk4XQdGB6-83">
          <mxGeometry relative="1" as="geometry">
            <mxPoint x="119.5" y="860" as="sourcePoint" />
            <mxPoint x="300" y="920" as="targetPoint" />
            <Array as="points">
              <mxPoint x="120" y="920" />
            </Array>
          </mxGeometry>
        </mxCell>
        <mxCell id="DTCYm0wzeM4vk4XQdGB6-78" value="No" style="edgeLabel;resizable=0;html=1;align=center;verticalAlign=middle;labelBackgroundColor=#F4F1DE;fontColor=#393C56;" connectable="0" vertex="1" parent="DTCYm0wzeM4vk4XQdGB6-77">
          <mxGeometry relative="1" as="geometry">
            <mxPoint x="-20" y="-40" as="offset" />
          </mxGeometry>
        </mxCell>
        <mxCell id="DTCYm0wzeM4vk4XQdGB6-81" value="" style="endArrow=classic;html=1;fontSize=10;exitX=1;exitY=0.5;exitDx=0;exitDy=0;labelBackgroundColor=#F4F1DE;strokeColor=#E07A5F;fontColor=#393C56;" edge="1" parent="WIyWlLk6GJQsqaUBKTNV-1" source="DTCYm0wzeM4vk4XQdGB6-90">
          <mxGeometry relative="1" as="geometry">
            <mxPoint x="420" y="919.5" as="sourcePoint" />
            <mxPoint x="700" y="780" as="targetPoint" />
            <Array as="points">
              <mxPoint x="700" y="920" />
            </Array>
          </mxGeometry>
        </mxCell>
        <mxCell id="DTCYm0wzeM4vk4XQdGB6-83" value="Long condition met?" style="rhombus;whiteSpace=wrap;html=1;shadow=0;fontFamily=Helvetica;fontSize=12;align=center;strokeWidth=1;spacing=6;spacingTop=-4;fillColor=#F2CC8F;strokeColor=#E07A5F;fontColor=#393C56;" vertex="1" parent="WIyWlLk6GJQsqaUBKTNV-1">
          <mxGeometry x="220" y="880" width="160" height="80" as="geometry" />
        </mxCell>
        <mxCell id="DTCYm0wzeM4vk4XQdGB6-85" value="" style="endArrow=classic;html=1;fontSize=10;labelBackgroundColor=#F4F1DE;strokeColor=#E07A5F;fontColor=#393C56;exitX=0.5;exitY=1;exitDx=0;exitDy=0;" edge="1" parent="WIyWlLk6GJQsqaUBKTNV-1" source="DTCYm0wzeM4vk4XQdGB6-83">
          <mxGeometry relative="1" as="geometry">
            <mxPoint x="380" y="1010" as="sourcePoint" />
            <mxPoint x="700" y="870" as="targetPoint" />
            <Array as="points">
              <mxPoint x="300" y="1010" />
              <mxPoint x="700" y="1010" />
            </Array>
          </mxGeometry>
        </mxCell>
        <mxCell id="DTCYm0wzeM4vk4XQdGB6-86" value="Yes" style="edgeLabel;resizable=0;html=1;align=center;verticalAlign=middle;labelBackgroundColor=#F4F1DE;fontColor=#393C56;" connectable="0" vertex="1" parent="DTCYm0wzeM4vk4XQdGB6-85">
          <mxGeometry relative="1" as="geometry">
            <mxPoint x="-245" y="-30" as="offset" />
          </mxGeometry>
        </mxCell>
        <mxCell id="DTCYm0wzeM4vk4XQdGB6-89" value="Close short and go long" style="whiteSpace=wrap;html=1;fontSize=12;glass=0;strokeWidth=1;shadow=0;fillColor=#F2CC8F;strokeColor=#E07A5F;fontColor=#393C56;" vertex="1" parent="WIyWlLk6GJQsqaUBKTNV-1">
          <mxGeometry x="450" y="990" width="120" height="40" as="geometry" />
        </mxCell>
        <mxCell id="DTCYm0wzeM4vk4XQdGB6-90" value="&lt;font style=&quot;font-size: 12px&quot;&gt;Pass&lt;/font&gt;" style="whiteSpace=wrap;html=1;fontSize=10;fillColor=#fff2cc;strokeColor=#d6b656;" vertex="1" parent="WIyWlLk6GJQsqaUBKTNV-1">
          <mxGeometry x="450" y="900" width="120" height="40" as="geometry" />
        </mxCell>
        <mxCell id="DTCYm0wzeM4vk4XQdGB6-91" value="" style="endArrow=classic;html=1;fontSize=10;exitX=1;exitY=0.5;exitDx=0;exitDy=0;labelBackgroundColor=#F4F1DE;strokeColor=#E07A5F;fontColor=#393C56;" edge="1" parent="WIyWlLk6GJQsqaUBKTNV-1" source="DTCYm0wzeM4vk4XQdGB6-83" target="DTCYm0wzeM4vk4XQdGB6-90">
          <mxGeometry relative="1" as="geometry">
            <mxPoint x="380" y="920" as="sourcePoint" />
            <mxPoint x="700" y="780" as="targetPoint" />
            <Array as="points" />
          </mxGeometry>
        </mxCell>
        <mxCell id="DTCYm0wzeM4vk4XQdGB6-92" value="No" style="edgeLabel;html=1;align=center;verticalAlign=middle;resizable=0;points=[];fontColor=#393C56;" vertex="1" connectable="0" parent="DTCYm0wzeM4vk4XQdGB6-91">
          <mxGeometry x="-0.8842" relative="1" as="geometry">
            <mxPoint x="16" as="offset" />
          </mxGeometry>
        </mxCell>
      </root>
    </mxGraphModel>
  </diagram>
</mxfile>
